<?xml version="1.0" encoding="iso-8859-1"?>
<!-- Generator: Adobe Illustrator 18.0.0, SVG Export Plug-In . SVG Version: 6.00 Build 0)  -->
<!DOCTYPE svg PUBLIC "-//W3C//DTD SVG 1.1//EN" "http://www.w3.org/Graphics/SVG/1.1/DTD/svg11.dtd">
<svg xmlns:xlink="http://www.w3.org/1999/xlink" xmlns="http://www.w3.org/2000/svg" version="1.1" id="Capa_1" x="0px" y="0px" viewBox="0 0 495.248 495.248" style="enable-background:new 0 0 495.248 495.248;" xml:space="preserve" width="512px" height="512px">
<path d="M247.624,0C110.864,0,0,110.865,0,247.624s110.864,247.624,247.624,247.624c136.759,0,247.624-110.865,247.624-247.624  S384.383,0,247.624,0z M356.986,96.366L247.624,205.73L138.261,96.365C169.877,73.404,207.795,61,247.624,61  S325.37,73.404,356.986,96.366z M96.366,138.261L205.73,247.624L96.366,356.987C73.404,325.371,61,287.453,61,247.624  S73.404,169.877,96.366,138.261z M138.26,398.882l109.364-109.363l109.363,109.362c-31.616,22.963-69.534,35.367-109.363,35.367  C207.794,434.248,169.877,421.844,138.26,398.882z M398.881,356.986L289.518,247.624l109.362-109.363  c22.962,31.616,35.367,69.534,35.367,109.363S421.843,325.371,398.881,356.986z" fill="#475669"/>
<g>
</g>
<g>
</g>
<g>
</g>
<g>
</g>
<g>
</g>
<g>
</g>
<g>
</g>
<g>
</g>
<g>
</g>
<g>
</g>
<g>
</g>
<g>
</g>
<g>
</g>
<g>
</g>
<g>
</g>
</svg>
