<svg xmlns:xlink="http://www.w3.org/1999/xlink" id="svg" version="1.1" width="30" height="40" viewBox="0 0 400 400" xmlns="http://www.w3.org/2000/svg" ><g id="svgg"><path id="path0" d="M158.600 198.563 C 155.210 200.067,151.200 205.027,151.200 207.718 C 151.200 210.655,152.222 211.871,168.247 228.002 C 185.689 245.560,185.904 245.847,184.155 249.320 C 183.801 250.024,176.803 257.350,168.605 265.600 C 160.407 273.850,153.137 281.392,152.450 282.360 C 149.933 285.904,151.171 289.666,156.175 293.685 C 161.696 298.118,161.401 298.292,180.400 279.408 C 196.597 263.308,197.659 262.400,200.291 262.400 C 202.481 262.400,202.289 262.231,219.200 279.006 C 239.127 298.773,239.328 298.869,245.960 291.779 C 251.624 285.725,251.859 286.164,232.611 266.800 C 216.611 250.703,215.600 249.526,215.600 247.000 C 215.600 244.462,216.622 243.271,232.428 227.392 C 251.856 207.873,251.868 207.850,245.471 201.618 C 238.994 195.310,239.125 195.243,219.200 215.044 C 203.691 230.456,202.362 231.600,199.954 231.600 C 197.697 231.600,196.158 230.262,180.600 214.773 C 162.998 197.249,162.459 196.852,158.600 198.563 " stroke="none" fill="#ffffff" fill-rule="evenodd"></path><path id="path1" d="M165.200 1.157 C 157.672 4.980,154.741 6.887,148.600 11.959 C 143.491 16.177,139.802 19.836,137.976 22.495 C 136.239 25.026,135.672 25.759,133.587 28.167 C 131.577 30.490,130.214 32.641,129.012 35.386 C 128.438 36.699,127.733 38.049,127.446 38.386 C 127.159 38.724,126.613 39.810,126.232 40.800 C 125.851 41.790,125.008 43.434,124.358 44.453 C 123.542 45.733,122.957 47.466,122.466 50.053 C 122.075 52.114,121.457 54.252,121.094 54.805 C 120.051 56.390,119.303 60.558,119.044 66.223 C 118.857 70.294,118.584 72.096,117.802 74.393 C 116.505 78.207,116.541 79.899,118.000 83.800 C 118.658 85.560,119.199 87.540,119.201 88.200 C 119.209 90.912,119.934 92.504,124.165 99.102 C 127.282 103.962,138.669 108.965,146.008 108.700 C 150.440 108.540,150.179 108.619,158.000 105.061 C 165.063 101.849,170.853 93.863,171.634 86.259 C 171.886 83.800,172.401 81.418,172.979 80.037 C 173.890 77.862,174.800 73.271,174.800 70.850 C 174.800 69.731,175.931 67.512,178.368 63.850 C 178.936 62.998,179.729 61.787,180.132 61.159 C 182.451 57.540,189.504 53.336,194.519 52.582 C 196.596 52.270,198.573 51.909,198.911 51.779 C 201.401 50.823,211.937 53.901,214.730 56.400 C 215.099 56.730,216.210 57.615,217.200 58.367 C 219.125 59.829,221.818 63.275,223.229 66.081 C 223.704 67.026,224.351 68.094,224.666 68.453 C 224.994 68.827,225.399 70.658,225.615 72.740 C 225.822 74.739,226.179 77.216,226.410 78.244 C 227.494 83.083,221.718 92.309,215.690 95.366 C 214.969 95.732,212.831 97.030,210.937 98.252 C 209.044 99.473,206.843 100.707,206.047 100.993 C 205.251 101.280,203.547 102.074,202.259 102.757 C 200.972 103.441,199.662 104.000,199.348 104.000 C 199.034 104.000,197.747 104.519,196.489 105.152 C 195.230 105.786,192.808 106.592,191.107 106.942 C 189.406 107.293,187.156 108.014,186.107 108.546 C 185.058 109.077,182.734 109.788,180.943 110.126 C 179.152 110.463,176.953 111.114,176.057 111.571 C 175.065 112.077,172.666 112.633,169.914 112.993 C 166.661 113.420,164.448 113.977,161.999 114.985 C 160.130 115.755,158.210 116.389,157.733 116.393 C 157.256 116.397,155.703 117.017,154.281 117.772 C 152.858 118.526,150.908 119.348,149.947 119.598 C 148.226 120.045,144.162 122.282,142.600 123.642 C 132.497 132.440,131.456 133.730,126.827 143.200 C 126.128 144.630,125.285 146.250,124.954 146.800 C 123.048 149.967,122.704 151.342,122.209 157.765 C 121.863 162.246,121.483 164.747,120.956 166.000 C 120.222 167.748,120.200 170.505,120.200 261.000 L 120.200 354.200 121.100 356.563 C 121.739 358.240,122.004 359.806,122.014 361.963 C 122.034 366.266,122.954 370.904,124.353 373.754 C 125.013 375.099,126.006 377.190,126.560 378.400 C 130.125 386.190,137.634 395.071,143.623 398.582 L 146.043 400.000 201.417 400.000 L 256.790 400.000 261.095 397.115 C 266.051 393.794,267.085 392.795,270.000 388.517 C 271.168 386.803,272.523 384.950,273.012 384.400 C 275.207 381.930,277.117 378.477,277.767 375.800 C 278.141 374.260,278.885 372.036,279.420 370.859 C 279.992 369.601,280.573 367.245,280.827 365.153 C 281.085 363.032,281.693 360.579,282.330 359.095 L 283.400 356.600 283.318 261.400 C 283.273 209.040,283.126 148.560,282.992 127.000 C 282.822 99.696,282.882 86.465,283.188 83.400 C 283.720 78.087,283.207 71.223,282.045 68.090 C 281.614 66.929,281.148 64.769,281.009 63.290 C 280.647 59.430,280.086 56.912,279.029 54.400 C 278.520 53.190,277.817 50.992,277.467 49.516 C 277.117 48.040,276.412 46.150,275.899 45.316 C 275.387 44.482,274.642 42.720,274.242 41.400 C 273.843 40.080,273.195 38.640,272.802 38.200 C 272.410 37.760,271.597 36.419,270.997 35.220 C 267.762 28.758,258.751 17.584,253.277 13.246 C 251.585 11.905,248.503 9.469,246.429 7.831 C 244.355 6.194,241.835 4.545,240.829 4.168 C 239.823 3.790,238.542 3.162,237.982 2.772 C 237.422 2.382,235.915 1.599,234.632 1.031 L 232.300 0.000 199.850 0.020 L 167.400 0.040 165.200 1.157 M163.513 198.621 C 164.512 199.039,170.116 204.336,180.600 214.773 C 196.158 230.262,197.697 231.600,199.954 231.600 C 202.362 231.600,203.691 230.456,219.200 215.044 C 239.125 195.243,238.994 195.310,245.471 201.618 C 251.868 207.850,251.856 207.873,232.428 227.392 C 216.622 243.271,215.600 244.462,215.600 247.000 C 215.600 249.526,216.611 250.703,232.611 266.800 C 251.859 286.164,251.624 285.725,245.960 291.779 C 239.328 298.869,239.127 298.773,219.200 279.006 C 202.289 262.231,202.481 262.400,200.291 262.400 C 197.659 262.400,196.597 263.308,180.400 279.408 C 161.401 298.292,161.696 298.118,156.175 293.685 C 151.171 289.666,149.933 285.904,152.450 282.360 C 153.137 281.392,160.407 273.850,168.605 265.600 C 176.803 257.350,183.801 250.024,184.155 249.320 C 185.904 245.847,185.689 245.560,168.247 228.002 C 149.830 209.463,149.456 208.907,152.331 204.373 C 155.473 199.419,159.932 197.125,163.513 198.621 " stroke="none" fill="#ff0000" fill-rule="evenodd"></path></g></svg>