<?xml version="1.0" encoding="iso-8859-1"?>
<!-- Generator: Adobe Illustrator 19.0.0, SVG Export Plug-In . SVG Version: 6.00 Build 0)  -->
<svg xmlns:xlink="http://www.w3.org/1999/xlink" width="21" height="21" fill="#FFFFFF" version="1.1" id="Capa_1" xmlns="http://www.w3.org/2000/svg" x="0px" y="0px"
	 viewBox="0 0 512 512" style="enable-background:new 0 0 512 512;" xml:space="preserve">
<g>
	<g>
		<path d="M381.739,452.117l-50.283-64.661c-3.328-4.288-9.365-5.355-13.973-2.56c-21.867,13.376-46.827,20.437-72.149,20.437
			c-76.459,0-138.667-62.208-138.667-138.667c0-68.437,51.093-127.36,118.848-137.067c5.248-0.768,9.152-5.269,9.152-10.56V32
			c0-5.888-4.779-10.667-10.667-10.667c-123.52,0-224,110.059-224,245.333S110.059,512,245.333,512
			c60.523,0,93.269-10.965,134.763-45.099C384.555,463.232,385.28,456.683,381.739,452.117z"/>
	</g>
</g>
<g>
	<g>
		<path d="M266.667,0C260.779,0,256,4.779,256,10.667V96c0,5.888,4.779,10.667,10.667,10.667
			c76.459,0,138.667,62.208,138.667,138.667c0,5.888,4.779,10.667,10.667,10.667h85.333c5.888,0,10.667-4.779,10.667-10.667
			C512,110.059,401.941,0,266.667,0z"/>
	</g>
</g>
<g>
	<g>
		<path d="M501.333,277.333h-87.019c-5.312,0-9.813,3.904-10.56,9.152c-4.821,33.621-21.781,64.192-47.701,86.123
			c-4.437,3.733-5.056,10.325-1.408,14.848l63.744,78.912c1.856,2.304,4.587,3.733,7.552,3.947c0.256,0.021,0.491,0.021,0.747,0.021
			c2.688,0,5.291-1.024,7.275-2.859C483.541,421.205,512,355.797,512,288C512,282.112,507.221,277.333,501.333,277.333z"/>
	</g>
</g>
<g>
</g>
<g>
</g>
<g>
</g>
<g>
</g>
<g>
</g>
<g>
</g>
<g>
</g>
<g>
</g>
<g>
</g>
<g>
</g>
<g>
</g>
<g>
</g>
<g>
</g>
<g>
</g>
<g>
</g>
</svg>
