<svg  width="50" height="50" fill="#bcbcbc" id="a3e69887-f492-43f4-a8d0-3d0b87d338e5" data-name="Слой 1" xmlns="http://www.w3.org/2000/svg" viewBox="0 0 53.71 78.13"><title>one finger</title><path d="M1691,1087.41c3.74,4.3,7.15,3.91,10.9,1.56,3.24,4.19,7.1,5.25,11.48,2.06,5.92,6.34,9.79,5.06,14.25-4.6.73,10-.88,19.05-9.2,25.55-9.63,7.52-23.64,6.79-31.51-2.58a82.78,82.78,0,0,1-11.76-19.48c-3.44-7.73,1.64-14.44,10-14.49,5.33,0,10.66,0,16,0,3.18,0,5.7,1,6,4.6s-1.72,5.06-5.05,5.49S1695.24,1086.67,1691,1087.41Z" transform="translate(-1674.05 -1038.96)"/><path d="M1691.91,1073.9H1682c0-10.39-.19-20.66.21-30.91.06-1.5,3.19-4.23,4.52-4,1.89.3,4.83,2.74,4.9,4.37C1692.13,1053.43,1691.91,1063.54,1691.91,1073.9Z" transform="translate(-1674.05 -1038.96)"/><path d="M1714.53,1088.91c1.37-7.36,2.34-13.21,3.57-19,.67-3.16,3.31-4.65,6-3.4,1.74.82,3.73,3.66,3.6,5.44a82.22,82.22,0,0,1-3,17c-.54,1.84-3.66,4-5.6,4C1717.37,1092.93,1715.7,1090,1714.53,1088.91Z" transform="translate(-1674.05 -1038.96)"/><path d="M1703.73,1087.83c6.35-5.17,5.57-6,2.9-12.85-1.37-3.52,1.36-8.75,2.73-13,.18-.58,3.61-.85,4.92-.13s2.72,3,2.53,4.31a192,192,0,0,1-4,21.91C1711.6,1092.52,1707.3,1092.35,1703.73,1087.83Z" transform="translate(-1674.05 -1038.96)"/><path d="M1703.76,1073.88H1693.7c.95-5.26,1.46-10.28,2.95-15,.44-1.39,3.88-2.92,5.51-2.54s3.65,3.15,3.61,4.84C1705.68,1065.38,1704.52,1069.55,1703.76,1073.88Z" transform="translate(-1674.05 -1038.96)"/></svg>