<svg width="50" height="50" fill="#bcbcbc" id="7ed64c15-9464-4ad1-9879-43f3134e46db" data-name="Слой 1" xmlns="http://www.w3.org/2000/svg" viewBox="0 0 53.58 80.1"><title>two fingers</title><path d="M1693.6,1090.3l4.27,4.68c-.14-2.32-.21-3.32-.27-4.32,4.4-1,8.68-2,12.77,1.38,1.16,1,3.46.6,5.25.72.8.05,2.09-.6,2.37-.27,5.3,6.29,8.78.74,12.71-1.88,2,11.56-3.57,22.29-13.67,26.4-11,4.48-22.86,1-29.3-8.92-3-4.59-6.32-9.16-8.12-14.23-1.24-3.51-.76-8,.22-11.76.45-1.68,3.92-3.37,6.18-3.61,6.09-.65,12.27-.55,18.41-.69,3.17-.07,6.32.33,6.54,4.38s-2.49,5.16-6.18,5.26-7.28.78-10.92,1.21Z" transform="translate(-1678.87 -1038.84)"/><path d="M1707,1075.32H1686c0-9.94-.21-19.37.22-28.78.07-1.45,3-3.79,4.72-3.93,3.27-.26,4.89,2.33,4.92,5.58.05,6.49,0,13,0,19.46a5.65,5.65,0,0,0,1.11,3.71c0-8.93-.19-17.87.15-26.79.07-1.89,1.73-4.08,3.27-5.41.79-.68,3.3-.24,4.4.57a5.88,5.88,0,0,1,2,4.13C1707.06,1054.15,1707,1064.45,1707,1075.32Z" transform="translate(-1678.87 -1038.84)"/><path d="M1732.45,1069.84c-1.4,7-2.37,12.34-3.59,17.66-.7,3-2.68,5.5-6,4.53s-4.07-3.62-3.13-7.2a134.8,134.8,0,0,0,2.58-14.74c.48-3.29,2.07-5.8,5.45-4.72C1729.82,1066,1731.27,1068.65,1732.45,1069.84Z" transform="translate(-1678.87 -1038.84)"/><path d="M1710,1088.28c3-3.86,3.75-7.35.16-10.92a4.07,4.07,0,0,1-.74-3c.46-3.43,1.06-6.86,1.79-10.25.67-3.15,3.14-4.81,5.85-3.7,1.71.69,3.76,3.56,3.61,5.28a153.41,153.41,0,0,1-3,18.11C1716.78,1088.32,1714.62,1089.58,1710,1088.28Z" transform="translate(-1678.87 -1038.84)"/></svg>