<svg width="50" height="50" fill="#bcbcbc" id="096334b5-c18c-455d-820b-4508df629e73" data-name="Слой 1" xmlns="http://www.w3.org/2000/svg" viewBox="0 0 54.4 80.32"><title>three fingers</title><path d="M1690.17,1085.63l5.32,4.85-1.06-4c2.86-.41,5.63-.83,8.4-1.2,4.1-.54,7-2.45,7.09-6.9.09-4-2.89-6.3-7.91-6.38-5.47-.08-10.94,0-17.34,0,0-3.88,0-7.46,0-11,0-5.66,0-11.33.05-17,0-3.25,1.48-5.62,5-5.56s5,2.45,5.06,5.64c.12,6.16,0,12.33,0,18.49q0,2.37,0,4.73H1696c0-8.44.11-16.88-.05-25.32-.07-3.73.65-7.21,4.76-7.35,4.45-.15,5.38,3.38,5.32,7.34a171.54,171.54,0,0,0,1.08,25.37q0-9.59,0-19.18c0-1.66-.54-3.72.24-4.9,1.22-1.86,3.31-4.25,5.09-4.3,1.48,0,4.38,3,4.36,4.61-.13,11.76-.83,23.52-1.39,35.27-.07,1.48-1,3.22-.45,4.37,1.06,2.35,2.4,5.35,4.44,6.25,1.72.76,4.69-.85,6.89-1.86,1-.46,1.51-2,2.36-3.27.71,11.84-1.59,22.07-13,28a23.47,23.47,0,0,1-30.1-7.43c-3.08-4.51-5.66-9.37-8.46-14.07-5-8.42.34-18.93,10.56-17.49,4.58.64,9.31.09,14,.14,3.22,0,6.11.67,6.5,4.62s-2.08,5.19-5.44,5.64C1698.9,1084.23,1695.13,1084.87,1690.17,1085.63Z" transform="translate(-1675.17 -1034.62)"/><path d="M1729.57,1065.76c-1.27,7.09-2.21,12.65-3.28,18.18-.63,3.29-2.74,5.14-6.07,4.24-3.09-.83-4.42-3.12-3.75-6.52,1-5.2,1.76-10.45,2.78-15.65.61-3.14,2.58-5.56,5.89-4.45C1727.12,1062.2,1728.48,1064.66,1729.57,1065.76Z" transform="translate(-1675.17 -1034.62)"/></svg>