<?xml version="1.0" encoding="iso-8859-1"?>
<!-- Generator: Adobe Illustrator 19.0.0, SVG Export Plug-In . SVG Version: 6.00 Build 0)  -->
<svg  xmlns="http://www.w3.org/2000/svg" xmlns:xlink="http://www.w3.org/1999/xlink" version="1.1" id="Capa_1" x="0px" y="0px" viewBox="0 0 491 491" style="enable-background:new 0 0 491 491;" xml:space="preserve" width="20" height="20">
<g>
	<path d="M470.5,190.2c11.3,0,20.5-9.2,20.5-20.5V20.5C491,9.2,481.8,0,470.5,0H321.3c-11.3,0-20.5,9.2-20.5,20.5S310,41,321.3,41   h100.6L246.3,216.2L71.1,41h98.6c11.3,0,20.5-9.2,20.5-20.5S181,0,169.7,0H20.5C9.2,0,0,9.2,0,20.5v149.2   c0,11.3,9.2,20.5,20.5,20.5S41,181,41,169.7V69.1l176,176.4L41,421v-99.7c0-11.3-9.2-20.5-20.5-20.5S0,310,0,321.3v149.2   C0,481.8,9.2,491,20.5,491h149.2c11.3,0,20.5-9.2,20.5-20.5S181,450,169.7,450H69.2l176.5-175.7L421,450h-99.7   c-11.3,0-20.5,9.2-20.5,20.5S310,491,321.3,491h149.2c11.3,0,20.5-9.2,20.5-20.5V321.3c0-11.3-9.2-20.5-20.5-20.5   S450,310,450,321.3v98.6L275.1,245L450,71v98.8C450,181.1,459.2,190.2,470.5,190.2z" fill="#ff8e41"/>
</g>
<g>
</g>
<g>
</g>
<g>
</g>
<g>
</g>
<g>
</g>
<g>
</g>
<g>
</g>
<g>
</g>
<g>
</g>
<g>
</g>
<g>
</g>
<g>
</g>
<g>
</g>
<g>
</g>
<g>
</g>
</svg>
