<?xml version="1.0" encoding="iso-8859-1"?>
<!-- Generator: Adobe Illustrator 19.0.0, SVG Export Plug-In . SVG Version: 6.00 Build 0)  -->
<svg fill="#ff8e41" width="22" height="22" version="1.1" id="Capa_1" xmlns="http://www.w3.org/2000/svg" xmlns:xlink="http://www.w3.org/1999/xlink" x="0px" y="0px"
	 viewBox="0 0 512 512" style="enable-background:new 0 0 512 512;" xml:space="preserve">
<g>
	<g>
		<path d="M472,0H92c-8.284,0-15,6.716-15,15v56H40c-8.284,0-15,6.716-15,15s6.716,15,15,15h37v83.333H40c-8.284,0-15,6.716-15,15
			s6.716,15,15,15h37v83.334H40c-8.284,0-15,6.716-15,15s6.716,15,15,15h37V411H40c-8.284,0-15,6.716-15,15s6.716,15,15,15h37v56
			c0,8.284,6.716,15,15,15h380c8.284,0,15-6.716,15-15V15C487,6.716,480.284,0,472,0z M398.032,417.006H193.968
			c-8.284,0-15-6.716-15-15v-29.483c0-15.017,7.441-28.98,19.906-37.354l54.464-36.59v-8.737
			c-25.043-14.269-41.256-40.008-43.041-69.298l-2.101-34.466c-1.455-23.884,6.773-46.634,23.171-64.061
			c16.396-17.427,38.604-27.023,62.532-27.023h4.201c23.928,0,46.136,9.597,62.532,27.023
			c16.397,17.427,24.626,40.177,23.171,64.061l-2.101,34.466c-1.784,29.29-17.997,55.029-43.041,69.298v8.737l54.465,36.59
			c12.464,8.373,19.905,22.337,19.905,37.354v29.483h0.001C413.032,410.29,406.316,417.006,398.032,417.006z"/>
	</g>
</g>
<g>
</g>
<g>
</g>
<g>
</g>
<g>
</g>
<g>
</g>
<g>
</g>
<g>
</g>
<g>
</g>
<g>
</g>
<g>
</g>
<g>
</g>
<g>
</g>
<g>
</g>
<g>
</g>
<g>
</g>
</svg>
